# This file uses centimeters as units for non-parametric coordinates.

mtllib floating_water_long.mtl
g default
v 0.060986 13.851899 3.207542
v 2.978352 13.772075 3.207106
v 2.976842 11.797794 -4.209339
v 0.060719 11.861437 -4.210749
v 0.059930 11.484004 -8.926415
v 0.059075 11.845736 -8.908729
v 3.062554 11.924370 -8.909291
v 2.977238 11.484004 -8.926415
v 0.059103 11.477016 -6.520886
v 3.061637 11.790080 -6.519819
v -2.857379 11.484004 -8.926415
v -2.857675 11.805596 -8.908162
v -2.856702 11.436611 -6.521949
v -2.855403 12.167947 -4.212161
v -2.856919 13.820074 3.207976
v 0.534852 -20.725844 -8.874970
v 0.059929 -20.725844 -8.874970
v -0.414994 -20.725844 -8.874970
v 0.325032 -22.791182 -8.821805
v 0.059929 -24.576273 -8.821805
v -0.205173 -22.791182 -8.821806
v 0.059981 14.349608 5.062598
v 0.059981 14.349608 5.062598
v -2.860499 14.233581 5.067141
v 0.059106 14.350120 5.066136
v 0.058230 14.350634 5.069677
v -2.862536 14.218867 7.767278
v 0.058230 14.642189 7.765704
v 2.978709 14.266373 5.065135
v 2.978995 14.642187 7.764130
v 0.069789 14.174143 3.089185
v 2.441069 14.026889 2.973667
v 2.434603 11.981114 -4.241433
v 0.068186 12.044386 -4.249012
v 0.064760 11.487628 -9.113318
v 0.059651 11.988719 -9.029025
v 2.500685 12.021189 -8.992907
v 2.436250 11.487202 -9.113260
v 0.061243 11.663897 -6.523882
v 2.496806 11.975887 -6.518022
v -2.306730 11.488052 -9.113220
v -2.308009 11.902869 -8.987229
v -2.303808 11.619741 -6.529601
v -2.298241 12.349392 -4.256345
v -2.304726 14.075773 3.483938
v 0.447111 -20.728541 -9.061881
v 0.060901 -20.728541 -9.061889
v -0.325310 -20.728541 -9.061881
v 0.276690 -22.794856 -9.008699
v 0.060901 -24.579947 -9.008699
v -0.154889 -22.794856 -9.008700
v -2.320034 14.491301 5.074263
v 0.061868 14.608584 5.068499
v -2.328732 14.478536 7.977104
v 0.057536 14.901846 7.968827
v 2.442588 14.523601 4.844355
v 2.443803 14.901831 7.741197
v 0.064331 7.908054 -9.107605
v 2.215235 7.907675 -9.107552
v 2.705862 7.905132 -8.920699
v 0.059930 7.905132 -8.920699
v -2.586003 7.905132 -8.920699
v -2.086572 7.908431 -9.107516
v 0.063902 4.328479 -9.101891
v 1.994219 4.328148 -9.101843
v 2.434485 4.326260 -8.914983
v 0.059930 4.326260 -8.914983
v -2.314627 4.326260 -8.914983
v -1.866414 4.328809 -9.101811
v 0.063474 0.748905 -9.096176
v 1.773204 0.748622 -9.096134
v 2.163109 0.747388 -8.909266
v 0.059930 0.747388 -8.909266
v -2.043251 0.747388 -8.909266
v -1.646257 0.749188 -9.096107
v 0.063045 -2.830670 -9.090462
v 1.552188 -2.830906 -9.090425
v 1.891733 -2.831484 -8.903550
v 0.059930 -2.831484 -8.903550
v -1.771874 -2.831484 -8.903550
v -1.426099 -2.830433 -9.090404
v 0.062616 -6.410242 -9.084747
v 1.331173 -6.410433 -9.084717
v 1.620357 -6.410357 -8.897835
v 0.059930 -6.410357 -8.897835
v -1.500498 -6.410357 -8.897835
v -1.205941 -6.410056 -9.084700
v 0.062187 -9.989817 -9.079033
v 1.110157 -9.989960 -9.079008
v 1.348981 -9.989230 -8.892118
v 0.059929 -9.989230 -8.892118
v -1.229122 -9.989230 -8.892118
v -0.985783 -9.989676 -9.078995
v 0.061758 -13.569392 -9.073318
v 0.889142 -13.569487 -9.073299
v 1.077604 -13.568102 -8.886402
v 0.059929 -13.568102 -8.886402
v -0.957746 -13.568102 -8.886402
v -0.765625 -13.569296 -9.073290
v 0.061329 -17.148966 -9.067604
v 0.668126 -17.149014 -9.067591
v 0.806228 -17.146973 -8.880686
v 0.059929 -17.146973 -8.880686
v -0.686370 -17.146973 -8.880686
v -0.545468 -17.148919 -9.067585
vt 0.594104 0.716329
vt 0.672460 0.711636
vt 0.679875 0.469722
vt 0.603054 0.471237
vt 0.600716 0.300999
vt 0.601743 0.317066
vt 0.677352 0.307657
vt 0.673844 0.289661
vt 0.603167 0.397474
vt 0.682161 0.392286
vt 0.525669 0.311485
vt 0.526360 0.323838
vt 0.526107 0.399294
vt 0.525890 0.474491
vt 0.515823 0.728514
vt 0.626186 0.106186
vt 0.568809 0.124642
vt 0.513957 0.144242
vt 0.560587 0.049716
vt 0.493393 0.016656
vt 0.504245 0.083538
vt 0.513066 0.784946
vt 0.589984 0.780266
vt 0.523292 0.890610
vt 0.595556 0.871656
vt 0.667157 0.771509
vt 0.668180 0.861671
vt 0.400354 0.708494
vt 0.412730 0.468016
vt 0.320110 0.462815
vt 0.307280 0.704659
vt 0.413221 0.307456
vt 0.321633 0.297010
vt 0.318025 0.311431
vt 0.413116 0.318867
vt 0.316764 0.389790
vt 0.413579 0.394626
vt 0.507401 0.314361
vt 0.507941 0.324358
vt 0.507310 0.398714
vt 0.497064 0.716821
vt 0.506896 0.474253
vt 0.431175 0.131005
vt 0.358973 0.112783
vt 0.500160 0.147964
vt 0.490257 0.021302
vt 0.422058 0.055559
vt 0.496239 0.088120
vt 0.398780 0.772732
vt 0.398799 0.772856
vt 0.493478 0.779420
vt 0.386222 0.728855
vt 0.620789 0.965204
vt 0.598916 0.881712
vt 0.522683 0.901368
vt 0.531486 0.984730
vt 0.620847 0.965305
vt 0.685926 0.866458
vt 0.685092 0.861921
vt 0.776399 0.794414
vt 0.686497 0.777522
vt 0.776329 0.794185
vt 0.776316 0.794182
vt 0.789257 0.734752
vt 0.692699 0.717533
vt 0.698286 0.469456
vt 0.695331 0.306092
vt 0.691801 0.287018
vt 0.701281 0.390807
vt 0.641127 0.103182
vt 0.421233 0.045716
vt 0.356307 0.096399
vt 0.510885 0.988513
vt 0.597171 0.281404
vt 0.668549 0.269275
vt 0.325782 0.276540
vt 0.686171 0.266592
vt 0.415216 0.287850
vt 0.506596 0.295872
vt 0.524368 0.292902
vt 0.593626 0.261809
vt 0.663253 0.248889
vt 0.329931 0.256071
vt 0.680540 0.246166
vt 0.417211 0.268245
vt 0.505792 0.277384
vt 0.523066 0.274320
vt 0.590080 0.242213
vt 0.657958 0.228503
vt 0.334080 0.235601
vt 0.674910 0.225739
vt 0.419206 0.248639
vt 0.504987 0.258895
vt 0.521765 0.255737
vt 0.586535 0.222618
vt 0.652663 0.208117
vt 0.338229 0.215131
vt 0.669279 0.205313
vt 0.421201 0.229033
vt 0.504183 0.240407
vt 0.520464 0.237155
vt 0.582990 0.203023
vt 0.647367 0.187730
vt 0.342377 0.194662
vt 0.663649 0.184887
vt 0.423195 0.209428
vt 0.503378 0.221918
vt 0.519162 0.218572
vt 0.579445 0.183428
vt 0.642072 0.167344
vt 0.346526 0.174192
vt 0.658018 0.164461
vt 0.425190 0.189822
vt 0.502574 0.203430
vt 0.517861 0.199990
vt 0.575899 0.163832
vt 0.636777 0.146958
vt 0.350675 0.153722
vt 0.652388 0.144034
vt 0.427185 0.170216
vt 0.501769 0.184941
vt 0.516560 0.181407
vt 0.572354 0.144237
vt 0.631481 0.126572
vt 0.354824 0.133253
vt 0.646757 0.123608
vt 0.429180 0.150611
vt 0.500965 0.166453
vt 0.515258 0.162825
vn 0.036405 0.960577 -0.275622
vn 0.036405 0.960577 -0.275622
vn 0.036405 0.960576 -0.275622
vn 0.036405 0.960576 -0.275622
vn 0.006085 0.193618 -0.981058
vn 0.006085 0.193618 -0.981058
vn 0.006085 0.193618 -0.981058
vn 0.006085 0.193618 -0.981058
vn -0.070900 0.994742 0.073898
vn -0.070900 0.994742 0.073898
vn -0.070900 0.994742 0.073898
vn -0.070900 0.994742 0.073898
vn -0.012647 0.223668 -0.974583
vn -0.012647 0.223668 -0.974583
vn -0.012647 0.223668 -0.974583
vn -0.012647 0.223668 -0.974583
vn -0.026329 0.992232 0.121581
vn -0.026329 0.992232 0.121581
vn -0.026329 0.992232 0.121581
vn -0.026329 0.992232 0.121581
vn 0.021975 0.968588 -0.247698
vn 0.021975 0.968588 -0.247698
vn 0.021975 0.968588 -0.247698
vn 0.021975 0.968588 -0.247698
vn 0.000022 -0.001596 -0.999999
vn 0.000022 -0.001596 -0.999999
vn 0.000014 -0.009201 -0.999958
vn 0.000014 -0.009201 -0.999958
vn -0.000025 -0.009197 -0.999958
vn -0.000031 -0.001596 -0.999999
vn -0.000031 -0.001596 -0.999999
vn -0.000025 -0.009197 -0.999958
vn 0.011617 -0.019649 -0.999739
vn 0.011617 -0.019649 -0.999740
vn 0.011617 -0.019649 -0.999740
vn 0.011617 -0.019649 -0.999739
vn -0.011616 -0.019648 -0.999740
vn -0.011616 -0.019648 -0.999739
vn -0.011616 -0.019648 -0.999740
vn -0.011616 -0.019648 -0.999739
vn -0.051301 0.995064 -0.084950
vn -0.051301 0.995064 -0.084950
vn -0.051301 0.995064 -0.084950
vn -0.051301 0.995064 -0.084950
vn 0.054132 0.970020 -0.236919
vn 0.054132 0.970020 -0.236919
vn 0.054132 0.970020 -0.236919
vn 0.054132 0.970020 -0.236918
vn -0.063511 0.970746 -0.231558
vn -0.063511 0.970746 -0.231558
vn -0.063511 0.970746 -0.231558
vn -0.063511 0.970746 -0.231558
vn -0.112663 0.992462 -0.048224
vn -0.112663 0.992462 -0.048224
vn -0.112663 0.992462 -0.048224
vn -0.112663 0.992462 -0.048224
vn 0.006808 0.993336 -0.115055
vn 0.006808 0.993336 -0.115055
vn 0.006808 0.993336 -0.115055
vn 0.006808 0.993336 -0.115055
vn 0.030688 0.971530 -0.234921
vn 0.030688 0.971530 -0.234921
vn 0.030688 0.971530 -0.234921
vn 0.030688 0.971530 -0.234921
vn -0.023796 -0.965818 0.258128
vn -0.023796 -0.965818 0.258128
vn -0.023796 -0.965818 0.258128
vn -0.023796 -0.965818 0.258128
vn 0.000672 -0.043430 0.999056
vn 0.000672 -0.043430 0.999056
vn 0.000672 -0.043430 0.999056
vn 0.000672 -0.043430 0.999056
vn 0.064732 -0.992418 -0.104481
vn 0.064732 -0.992418 -0.104481
vn 0.064732 -0.992418 -0.104481
vn 0.064732 -0.992418 -0.104481
vn 0.000458 -0.052523 0.998620
vn 0.000458 -0.052523 0.998620
vn 0.000458 -0.052523 0.998620
vn 0.000458 -0.052523 0.998620
vn 0.013659 -0.988178 -0.152700
vn 0.013659 -0.988178 -0.152700
vn 0.013659 -0.988178 -0.152700
vn 0.013659 -0.988178 -0.152700
vn -0.045718 -0.970151 0.238152
vn -0.045718 -0.970151 0.238152
vn -0.045718 -0.970151 0.238152
vn -0.045718 -0.970151 0.238152
vn 0.000000 0.001597 0.999999
vn 0.000000 0.009218 0.999958
vn 0.000000 0.009218 0.999958
vn 0.000000 0.001597 0.999999
vn 0.000000 0.009218 0.999958
vn 0.000000 0.009218 0.999958
vn 0.000000 0.001597 0.999999
vn 0.000000 0.001597 0.999999
vn -0.009450 0.019651 0.999762
vn -0.009450 0.019651 0.999762
vn -0.009450 0.019651 0.999762
vn -0.009450 0.019651 0.999762
vn 0.009449 0.019651 0.999762
vn 0.009449 0.019651 0.999762
vn 0.009449 0.019651 0.999762
vn 0.009449 0.019651 0.999762
vn 0.041915 -0.995479 0.085237
vn 0.041915 -0.995479 0.085237
vn 0.041915 -0.995479 0.085237
vn 0.041915 -0.995479 0.085237
vn -0.044409 -0.971088 0.234555
vn -0.044409 -0.971088 0.234555
vn -0.044409 -0.971088 0.234555
vn -0.044409 -0.971088 0.234555
vn 0.039089 -0.975412 0.216896
vn 0.039089 -0.975412 0.216896
vn 0.039089 -0.975412 0.216896
vn 0.039089 -0.975412 0.216896
vn 0.000000 -0.000000 0.000000
vn 0.010572 -0.965786 0.259125
vn 0.010572 -0.965786 0.259125
vn 0.000000 -0.000000 0.000000
vn 0.092016 -0.994448 0.051053
vn 0.092016 -0.994448 0.051053
vn 0.092016 -0.994448 0.051053
vn 0.092016 -0.994448 0.051053
vn 0.039464 -0.987449 0.152927
vn 0.039464 -0.987449 0.152927
vn 0.039464 -0.987449 0.152927
vn 0.000013 -0.994198 0.107563
vn 0.000013 -0.994198 0.107563
vn 0.000013 -0.994198 0.107563
vn 0.000013 -0.994198 0.107563
vn -0.028352 -0.990046 0.137859
vn -0.028352 -0.990046 0.137859
vn -0.028352 -0.990046 0.137859
vn -0.028362 -0.990249 0.136394
vn -0.028362 -0.990249 0.136394
vn 0.000000 0.000000 0.000000
vn 0.000000 0.000000 0.000000
vn -0.027076 -0.965762 0.258013
vn -0.027076 -0.965762 0.258013
vn -0.027076 -0.965762 0.258013
vn -0.027076 -0.965762 0.258013
vn 0.415317 0.877113 -0.241215
vn 0.415317 0.877113 -0.241215
vn 0.415317 0.877113 -0.241215
vn 0.415317 0.877113 -0.241215
vn 0.245428 0.098355 -0.964412
vn 0.245428 0.098355 -0.964412
vn 0.245428 0.098355 -0.964412
vn 0.245428 0.098355 -0.964412
vn 0.240685 0.969934 0.036047
vn 0.240685 0.969934 0.036047
vn 0.240685 0.969934 0.036047
vn 0.240685 0.969934 0.036047
vn -0.246913 0.185762 -0.951066
vn -0.246913 0.185762 -0.951066
vn -0.246913 0.185762 -0.951066
vn -0.246913 0.185762 -0.951066
vn -0.234773 0.963326 0.129941
vn -0.234773 0.963326 0.129941
vn -0.234772 0.963326 0.129941
vn -0.234772 0.963326 0.129941
vn -0.321157 0.924315 -0.206154
vn -0.321157 0.924315 -0.206154
vn -0.321157 0.924315 -0.206154
vn -0.321157 0.924315 -0.206154
vn 0.801568 -0.056086 -0.595267
vn 0.355704 -0.039471 -0.933765
vn 0.355704 -0.039471 -0.933765
vn 0.804740 -0.056297 -0.590952
vn -0.349602 -0.038959 -0.936088
vn -0.795789 -0.055605 -0.603015
vn -0.799011 -0.055819 -0.598719
vn -0.349602 -0.038959 -0.936088
vn 0.468218 -0.238048 -0.850943
vn 0.468218 -0.238048 -0.850943
vn 0.468218 -0.238048 -0.850944
vn 0.468218 -0.238048 -0.850943
vn 0.736435 -0.497567 -0.458357
vn 0.736435 -0.497567 -0.458357
vn 0.736435 -0.497567 -0.458357
vn 0.736435 -0.497567 -0.458357
vn -0.458591 -0.233769 -0.857348
vn -0.458591 -0.233769 -0.857348
vn -0.458591 -0.233769 -0.857348
vn -0.458591 -0.233769 -0.857348
vn -0.723289 -0.488687 -0.487892
vn -0.723289 -0.488687 -0.487892
vn -0.723289 -0.488687 -0.487892
vn -0.723289 -0.488687 -0.487892
vn 0.316115 0.948692 0.007454
vn 0.316115 0.948692 0.007454
vn 0.316115 0.948692 0.007454
vn 0.316115 0.948692 0.007454
vn -0.310910 0.905676 -0.288246
vn -0.310910 0.905676 -0.288246
vn -0.310910 0.905676 -0.288246
vn -0.310910 0.905676 -0.288246
vn -0.367834 0.903686 -0.219202
vn -0.367834 0.903686 -0.219202
vn -0.367834 0.903686 -0.219202
vn -0.367834 0.903686 -0.219202
vn -0.434501 0.900664 0.003585
vn -0.434501 0.900664 0.003585
vn -0.434501 0.900664 0.003585
vn -0.434501 0.900664 0.003585
vn 0.110727 -0.685709 0.719405
vn 0.110727 -0.685709 0.719405
vn 0.110727 -0.685709 0.719405
vn 0.110727 -0.685709 0.719405
vn 0.041304 -0.289224 0.956370
vn 0.041304 -0.289224 0.956370
vn 0.041304 -0.289224 0.956370
vn 0.041304 -0.289224 0.956370
vn 0.453297 0.883359 -0.119155
vn 0.453297 0.883359 -0.119155
vn 0.453297 0.883359 -0.119155
vn 0.453297 0.883359 -0.119155
vn 0.495068 0.839641 -0.223407
vn 0.495068 0.839641 -0.223407
vn 0.495068 0.839641 -0.223407
vn 0.495068 0.839641 -0.223407
vn 0.000014 -0.009201 -0.999958
vn 0.000014 -0.009201 -0.999958
vn 0.000025 -0.001596 -0.999999
vn 0.000025 -0.001596 -0.999999
vn 0.355704 -0.039471 -0.933765
vn 0.355008 -0.025911 -0.934504
vn 0.356200 -0.025992 -0.934048
vn 0.355704 -0.039471 -0.933765
vn 0.000000 0.009218 0.999958
vn 0.000000 0.001597 0.999999
vn 0.000000 0.001597 0.999999
vn 0.000000 0.009218 0.999958
vn 0.000000 0.001597 0.999999
vn 0.000000 0.001597 0.999999
vn 0.000000 0.009218 0.999958
vn 0.000000 0.009218 0.999958
vn -0.350600 -0.025567 -0.936176
vn -0.349447 -0.025489 -0.936609
vn -0.349602 -0.038959 -0.936088
vn -0.349602 -0.038959 -0.936088
vn -0.000042 -0.001596 -0.999999
vn -0.000042 -0.001596 -0.999999
vn -0.000025 -0.009197 -0.999958
vn -0.000025 -0.009197 -0.999958
vn 0.000024 -0.001596 -0.999999
vn 0.000024 -0.001596 -0.999999
vn 0.389649 -0.028271 -0.920529
vn 0.391062 -0.028368 -0.919927
vn 0.000000 0.001597 0.999999
vn 0.000000 0.001597 0.999999
vn 0.000000 0.001597 0.999999
vn 0.000000 0.001597 0.999999
vn -0.385066 -0.027912 -0.922467
vn -0.383698 -0.027819 -0.923040
vn -0.000042 -0.001596 -0.999999
vn -0.000042 -0.001596 -0.999999
vn 0.000024 -0.001596 -0.999999
vn 0.000024 -0.001596 -0.999999
vn 0.430969 -0.031084 -0.901831
vn 0.432655 -0.031198 -0.901020
vn 0.000000 0.001597 0.999999
vn 0.000000 0.001597 0.999999
vn 0.000000 0.001597 0.999999
vn 0.000000 0.001597 0.999999
vn -0.426248 -0.030710 -0.904085
vn -0.424610 -0.030599 -0.904859
vn -0.000040 -0.001596 -0.999999
vn -0.000040 -0.001596 -0.999999
vn 0.000024 -0.001596 -0.999999
vn 0.000024 -0.001596 -0.999999
vn 0.480719 -0.034465 -0.876197
vn 0.482740 -0.034602 -0.875080
vn 0.000000 0.001597 0.999999
vn 0.000000 0.001597 0.999999
vn 0.000000 0.001597 0.999999
vn 0.000000 0.001597 0.999999
vn -0.475937 -0.034082 -0.878819
vn -0.473966 -0.033948 -0.879889
vn -0.000039 -0.001596 -0.999999
vn -0.000039 -0.001596 -0.999999
vn 0.000024 -0.001596 -0.999999
vn 0.000024 -0.001596 -0.999999
vn 0.541038 -0.038556 -0.840114
vn 0.543455 -0.038720 -0.838545
vn 0.000000 0.001597 0.999999
vn 0.000000 0.001597 0.999999
vn 0.000000 0.001597 0.999999
vn 0.000000 0.001597 0.999999
vn -0.536334 -0.038172 -0.843142
vn -0.533962 -0.038012 -0.844653
vn -0.000039 -0.001596 -0.999999
vn -0.000039 -0.001596 -0.999999
vn 0.000024 -0.001596 -0.999999
vn 0.000024 -0.001596 -0.999999
vn 0.614213 -0.043506 -0.787940
vn 0.617055 -0.043698 -0.785706
vn 0.000000 0.001597 0.999999
vn 0.000000 0.001597 0.999999
vn 0.000000 0.001597 0.999999
vn 0.000000 0.001597 0.999999
vn -0.609829 -0.043136 -0.791358
vn -0.607018 -0.042947 -0.793527
vn -0.000037 -0.001596 -0.999999
vn -0.000037 -0.001596 -0.999999
vn 0.000023 -0.001596 -0.999999
vn 0.000023 -0.001596 -0.999999
vn 0.701733 -0.049403 -0.710725
vn 0.704916 -0.049617 -0.707554
vn 0.000000 0.001597 0.999999
vn 0.000000 0.001597 0.999999
vn 0.000000 0.001597 0.999999
vn 0.000000 0.001597 0.999999
vn -0.698035 -0.049070 -0.714380
vn -0.694853 -0.048856 -0.717490
vn -0.000035 -0.001596 -0.999999
vn -0.000035 -0.001596 -0.999999
s off
g floating_water:Group2
usemtl floating_water:defaultMat
f 31/1/1 32/2/2 33/3/3 34/4/4
f 35/5/5 36/6/6 37/7/7 38/8/8
f 36/6/9 39/9/10 40/10/11 37/7/12
f 41/11/13 42/12/14 36/6/15 35/5/16
f 42/12/17 43/13/18 39/9/19 36/6/20
f 31/1/21 34/4/22 44/14/23 45/15/24
s 1
f 100/123/25 101/124/26 46/16/27 47/17/28
s 2
f 48/18/29 105/129/30 100/123/31 47/17/32
s off
f 47/17/33 46/16/34 49/19/35 50/20/36
f 51/21/37 48/18/38 47/17/39 50/20/40
f 33/3/41 40/10/42 39/9/43 34/4/44
f 43/13/45 44/14/46 34/4/47 39/9/48
f 31/1/49 45/15/50 52/22/51 53/23/52
f 53/23/53 52/22/54 54/24/55 55/25/56
f 56/26/57 53/23/58 55/25/59 57/27/60
f 32/2/61 31/1/62 53/23/63 56/26/64
f 1/28/65 4/29/66 3/30/67 2/31/68
f 5/32/69 8/33/70 7/34/71 6/35/72
f 6/35/73 7/34/74 10/36/75 9/37/76
f 11/38/77 5/32/78 6/35/79 12/39/80
f 12/39/81 6/35/82 9/37/83 13/40/84
f 1/28/85 15/41/86 14/42/87 4/29/88
s 3
f 103/127/89 17/43/90 16/44/91 102/125/92
s 4
f 18/45/93 17/43/94 103/127/95 104/128/96
s off
f 17/43/97 20/46/98 19/47/99 16/44/100
f 21/48/101 20/46/102 17/43/103 18/45/104
f 3/30/105 4/29/106 9/37/107 10/36/108
f 13/40/109 9/37/110 4/29/111 14/42/112
f 22/49/113 25/50/114 24/51/115 15/41/116
f 22/49/117 15/41/118 1/28/119 23/52/120
f 26/53/121 28/54/122 27/55/123 24/56/124
f 26/53/125 24/56/126 25/57/127
f 30/58/128 28/54/129 26/53/130 25/57/131
f 30/59/132 25/60/133 29/61/134
f 29/61/135 25/60/136 22/62/137 23/63/138
f 29/61/139 23/63/140 1/64/141 2/65/142
f 2/65/143 3/66/144 33/3/145 32/2/146
f 7/67/147 8/68/148 38/8/149 37/7/150
f 10/69/151 7/67/152 37/7/153 40/10/154
f 11/38/155 12/39/156 42/12/157 41/11/158
f 12/39/159 13/40/160 43/13/161 42/12/162
f 44/14/163 14/42/164 15/41/165 45/15/166
s 5
f 102/126/167 16/70/168 46/16/169 101/124/170
s 6
f 18/45/171 104/128/172 105/129/173 48/18/174
s off
f 16/44/175 19/47/176 49/71/177 46/72/178
f 19/47/179 20/46/180 50/20/181 49/71/182
f 21/48/183 18/45/184 48/18/185 51/21/186
f 20/46/187 21/48/188 51/21/189 50/20/190
f 3/66/191 10/69/192 40/10/193 33/3/194
f 13/40/195 14/42/196 44/14/197 43/13/198
f 45/15/199 15/41/200 24/51/201 52/22/202
f 52/73/203 24/56/204 27/55/205 54/24/206
f 27/55/207 28/54/208 55/25/209 54/24/210
f 28/54/211 30/58/212 57/27/213 55/25/214
f 56/26/215 57/27/216 30/59/217 29/61/218
f 32/2/219 56/26/220 29/61/221 2/65/222
s 1
f 35/5/223 38/8/224 59/75/225 58/74/226
s 5
f 8/68/227 60/77/228 59/75/229 38/8/230
s 3
f 5/32/231 61/78/232 60/76/233 8/33/234
s 4
f 62/79/235 61/78/236 5/32/237 11/38/238
s 6
f 63/80/239 62/79/240 11/38/241 41/11/242
s 2
f 58/74/243 63/80/244 41/11/245 35/5/246
s 1
f 58/74/226 59/75/225 65/82/247 64/81/248
s 5
f 60/77/228 66/84/249 65/82/250 59/75/229
s 3
f 61/78/232 67/85/251 66/83/252 60/76/233
s 4
f 68/86/253 67/85/254 61/78/236 62/79/235
s 6
f 69/87/255 68/86/256 62/79/240 63/80/239
s 2
f 64/81/257 69/87/258 63/80/244 58/74/243
s 1
f 64/81/248 65/82/247 71/89/259 70/88/260
s 5
f 66/84/249 72/91/261 71/89/262 65/82/250
s 3
f 67/85/251 73/92/263 72/90/264 66/83/252
s 4
f 74/93/265 73/92/266 67/85/254 68/86/253
s 6
f 75/94/267 74/93/268 68/86/256 69/87/255
s 2
f 70/88/269 75/94/270 69/87/258 64/81/257
s 1
f 70/88/260 71/89/259 77/96/271 76/95/272
s 5
f 72/91/261 78/98/273 77/96/274 71/89/262
s 3
f 73/92/263 79/99/275 78/97/276 72/90/264
s 4
f 80/100/277 79/99/278 73/92/266 74/93/265
s 6
f 81/101/279 80/100/280 74/93/268 75/94/267
s 2
f 76/95/281 81/101/282 75/94/270 70/88/269
s 1
f 76/95/272 77/96/271 83/103/283 82/102/284
s 5
f 78/98/273 84/105/285 83/103/286 77/96/274
s 3
f 79/99/275 85/106/287 84/104/288 78/97/276
s 4
f 86/107/289 85/106/290 79/99/278 80/100/277
s 6
f 87/108/291 86/107/292 80/100/280 81/101/279
s 2
f 82/102/293 87/108/294 81/101/282 76/95/281
s 1
f 82/102/284 83/103/283 89/110/295 88/109/296
s 5
f 84/105/285 90/112/297 89/110/298 83/103/286
s 3
f 85/106/287 91/113/299 90/111/300 84/104/288
s 4
f 92/114/301 91/113/302 85/106/290 86/107/289
s 6
f 93/115/303 92/114/304 86/107/292 87/108/291
s 2
f 88/109/305 93/115/306 87/108/294 82/102/293
s 1
f 88/109/296 89/110/295 95/117/307 94/116/308
s 5
f 90/112/297 96/119/309 95/117/310 89/110/298
s 3
f 91/113/299 97/120/311 96/118/312 90/111/300
s 4
f 98/121/313 97/120/314 91/113/302 92/114/301
s 6
f 99/122/315 98/121/316 92/114/304 93/115/303
s 2
f 94/116/317 99/122/318 93/115/306 88/109/305
s 1
f 94/116/308 95/117/307 101/124/26 100/123/25
s 5
f 96/119/309 102/126/167 101/124/170 95/117/310
s 3
f 97/120/311 103/127/89 102/125/92 96/118/312
s 4
f 104/128/96 103/127/95 97/120/314 98/121/313
s 6
f 105/129/173 104/128/172 98/121/316 99/122/315
s 2
f 100/123/31 105/129/30 99/122/318 94/116/317
